<?xml version="1.0" encoding="UTF-8"?>
<svg xmlns="http://www.w3.org/2000/svg" xmlns:xlink="http://www.w3.org/1999/xlink" width="256px" height="231px" viewBox="0 0 255 231" version="1.1">
<defs>
<linearGradient id="linear0" gradientUnits="userSpaceOnUse" x1="1.08633" y1="0.13818" x2="0.46927" y2="0.78776" gradientTransform="matrix(203.65625,0,0,151.574219,39.128906,78.191406)">
<stop offset="0.18" style="stop-color:rgb(0%,32.156863%,80%);stop-opacity:1;"/>
<stop offset="1" style="stop-color:rgb(14.901961%,51.764706%,100%);stop-opacity:1;"/>
</linearGradient>
</defs>
<g id="surface1">
<path style=" stroke:none;fill-rule:nonzero;fill:rgb(14.901961%,51.764706%,100%);fill-opacity:1;" d="M 9.167969 1.535156 C 6.773438 1.503906 4.484375 2.535156 2.921875 4.359375 C 1.359375 6.179688 0.675781 8.605469 1.058594 10.976562 L 35.484375 220.753906 C 36.367188 226.054688 40.914062 229.949219 46.269531 229.992188 L 211.410156 229.992188 C 215.425781 230.046875 218.875 227.136719 219.515625 223.15625 L 253.941406 11.019531 C 254.324219 8.644531 253.640625 6.222656 252.078125 4.402344 C 250.511719 2.578125 248.226562 1.546875 245.832031 1.578125 Z M 154.117188 153.148438 L 101.410156 153.148438 L 87.136719 78.296875 L 166.890625 78.296875 Z M 154.117188 153.148438 "/>
<path style=" stroke:none;fill-rule:nonzero;fill:url(#linear0);" d="M 242.785156 78.191406 L 166.742188 78.191406 L 153.980469 152.984375 L 101.3125 152.984375 L 39.128906 227.082031 C 41.097656 228.792969 43.609375 229.742188 46.214844 229.765625 L 211.265625 229.765625 C 215.28125 229.816406 218.726562 226.910156 219.371094 222.933594 Z M 242.785156 78.191406 "/>
</g>
</svg>
