<?xml version="1.0" encoding="UTF-8"?>
<svg xmlns="http://www.w3.org/2000/svg" xmlns:xlink="http://www.w3.org/1999/xlink" width="256px" height="256px" viewBox="0 0 256 256" version="1.1">
<g id="surface1">
<path style=" stroke:none;fill-rule:nonzero;fill:rgb(12.156863%,43.921569%,75.686276%);fill-opacity:1;" d="M 0 76.800781 L 0 83.804688 L 49.828125 83.804688 L 49.828125 76.800781 Z M 56.890625 76.800781 L 56.890625 83.804688 L 127.898438 83.804688 C 127.898438 83.804688 120.648438 76.800781 111.039062 76.800781 Z M 141.828125 76.800781 L 141.828125 83.804688 L 184.789062 83.804688 L 182.238281 76.800781 Z M 215.589844 76.800781 L 213.039062 83.804688 L 255.609375 83.804688 L 255.609375 76.800781 Z M 0 90.425781 L 0 97.429688 L 49.828125 97.429688 L 49.828125 90.425781 Z M 56.890625 90.433594 L 56.890625 97.429688 L 136.140625 97.429688 C 136.140625 97.429688 135.214844 92.039062 133.601562 90.433594 Z M 141.828125 90.433594 L 141.828125 97.429688 L 189.5 97.429688 L 187.140625 90.433594 Z M 210.488281 90.433594 L 208.128906 97.429688 L 255.609375 97.429688 L 255.609375 90.433594 Z M 14.320312 104.050781 L 14.320312 111.066406 L 35.898438 111.066406 L 35.898438 104.050781 Z M 71.210938 104.050781 L 71.210938 111.066406 L 92.789062 111.066406 L 92.789062 104.050781 Z M 113.78125 104.050781 L 113.78125 111.066406 L 135.359375 111.066406 C 135.359375 111.066406 136.730469 107.359375 136.730469 104.050781 Z M 156.148438 104.050781 L 156.148438 111.066406 L 194.410156 111.066406 L 191.859375 104.050781 Z M 205.789062 104.050781 L 203.230469 111.066406 L 241.679688 111.066406 L 241.679688 104.050781 Z M 14.320312 117.683594 L 14.320312 124.691406 L 35.898438 124.691406 L 35.898438 117.683594 Z M 71.210938 117.683594 L 71.210938 124.691406 L 126.328125 124.691406 C 126.328125 124.691406 130.941406 121.097656 132.410156 117.683594 Z M 156.148438 117.683594 L 156.148438 124.691406 L 177.730469 124.691406 L 177.730469 120.789062 L 179.101562 124.691406 L 218.628906 124.691406 L 220.101562 120.789062 L 220.101562 124.691406 L 241.679688 124.691406 L 241.679688 117.683594 L 201.167969 117.683594 L 199.019531 123.617188 L 196.859375 117.683594 Z M 14.320312 131.308594 L 14.320312 138.316406 L 35.898438 138.316406 L 35.898438 131.308594 Z M 71.210938 131.308594 L 71.210938 138.316406 L 132.410156 138.316406 C 130.941406 134.914062 126.328125 131.308594 126.328125 131.308594 Z M 156.148438 131.308594 L 156.148438 138.316406 L 177.730469 138.316406 L 177.730469 131.308594 Z M 181.648438 131.308594 L 184.261719 138.316406 L 213.898438 138.316406 L 216.378906 131.308594 Z M 220.101562 131.308594 L 220.101562 138.316406 L 241.679688 138.316406 L 241.679688 131.308594 Z M 14.320312 144.933594 L 14.320312 151.941406 L 35.898438 151.941406 L 35.898438 144.933594 Z M 71.210938 144.933594 L 71.210938 151.941406 L 92.789062 151.941406 L 92.789062 144.933594 Z M 113.78125 144.933594 L 113.78125 151.941406 L 136.730469 151.941406 C 136.730469 148.632812 135.359375 144.933594 135.359375 144.933594 Z M 156.148438 144.933594 L 156.148438 151.941406 L 177.730469 151.941406 L 177.730469 144.933594 Z M 186.550781 144.933594 L 189.078125 151.941406 L 208.949219 151.941406 L 211.5 144.933594 Z M 220.101562 144.933594 L 220.101562 151.941406 L 241.679688 151.941406 L 241.679688 144.933594 Z M 0.390625 158.558594 L 0.390625 165.574219 L 50.21875 165.574219 L 50.21875 158.558594 Z M 56.890625 158.558594 L 56.890625 165.574219 L 133.601562 165.574219 C 135.214844 163.96875 136.140625 158.558594 136.140625 158.558594 Z M 142.21875 158.558594 L 142.21875 165.574219 L 177.730469 165.574219 L 177.730469 158.558594 Z M 191.460938 158.558594 L 194.058594 165.574219 L 204.167969 165.574219 L 206.609375 158.558594 Z M 220.101562 158.558594 L 220.101562 165.574219 L 256 165.574219 L 256 158.558594 Z M 0.390625 172.195312 L 0.390625 179.199219 L 50.21875 179.199219 L 50.21875 172.195312 Z M 56.890625 172.195312 L 56.890625 179.191406 L 111.039062 179.191406 C 120.648438 179.191406 127.898438 172.195312 127.898438 172.195312 Z M 142.21875 172.195312 L 142.21875 179.199219 L 177.730469 179.199219 L 177.730469 172.195312 Z M 196.390625 172.195312 L 198.890625 179.179688 L 199.320312 179.191406 L 201.859375 172.195312 Z M 220.101562 172.195312 L 220.101562 179.199219 L 256 179.199219 L 256 172.195312 Z M 220.101562 172.195312 "/>
</g>
</svg>
