<?xml version="1.0" encoding="UTF-8"?>
<svg xmlns="http://www.w3.org/2000/svg" xmlns:xlink="http://www.w3.org/1999/xlink" width="256px" height="249px" viewBox="0 0 256 249" version="1.1">
<g id="surface1">
<path style=" stroke:none;fill-rule:nonzero;fill:rgb(19.607843%,42.745098%,90.196078%);fill-opacity:1;" d="M 82.085938 244.933594 C 76.140625 244.933594 70.523438 242.292969 66.726562 237.5 L 8.917969 165.65625 C 5.121094 160.867188 3.632812 154.757812 5.121094 148.808594 L 25.765625 59.128906 C 27.085938 53.183594 31.050781 48.390625 36.5 45.75 L 120.070312 5.78125 C 122.714844 4.460938 125.6875 3.796875 128.660156 3.796875 C 131.632812 3.796875 134.605469 4.460938 137.25 5.78125 L 220.820312 45.585938 C 226.269531 48.226562 230.234375 53.015625 231.554688 58.960938 L 252.203125 148.644531 C 253.523438 154.589844 252.203125 160.703125 248.402344 165.492188 L 190.597656 237.335938 C 186.796875 241.960938 181.183594 244.769531 175.234375 244.769531 Z M 82.085938 244.933594 "/>
<path style=" stroke:none;fill-rule:nonzero;fill:rgb(100%,100%,100%);fill-opacity:1;" d="M 128.496094 7.929688 C 130.808594 7.929688 133.121094 8.421875 135.265625 9.414062 L 218.839844 49.21875 C 223.132812 51.363281 226.4375 55.328125 227.425781 59.953125 L 248.070312 149.636719 C 249.226562 154.425781 248.070312 159.378906 244.933594 163.179688 L 187.128906 235.023438 C 184.15625 238.824219 179.53125 240.96875 174.742188 240.96875 L 82.085938 240.96875 C 77.296875 240.96875 72.671875 238.824219 69.699219 235.023438 L 11.890625 163.179688 C 8.917969 159.378906 7.761719 154.425781 8.753906 149.636719 L 29.398438 59.953125 C 30.554688 55.164062 33.691406 51.199219 37.988281 49.21875 L 121.558594 9.25 C 123.707031 8.421875 126.183594 7.929688 128.496094 7.929688 Z M 128.496094 0.164062 C 125.027344 0.164062 121.558594 0.992188 118.253906 2.476562 L 34.683594 42.445312 C 28.078125 45.585938 23.453125 51.363281 21.800781 58.46875 L 1.15625 148.148438 C -0.496094 155.25 1.15625 162.519531 5.78125 168.300781 L 63.585938 240.144531 C 68.046875 245.761719 74.816406 248.898438 81.921875 248.898438 L 174.574219 248.898438 C 181.675781 248.898438 188.449219 245.761719 192.910156 240.144531 L 250.714844 168.300781 C 255.339844 162.683594 256.992188 155.25 255.339844 148.148438 L 234.695312 58.46875 C 233.042969 51.363281 228.417969 45.585938 221.8125 42.445312 L 138.570312 2.476562 C 135.433594 0.992188 131.964844 0.164062 128.496094 0.164062 Z M 128.496094 0.164062 "/>
<path style=" stroke:none;fill-rule:nonzero;fill:rgb(100%,100%,100%);fill-opacity:1;" d="M 212.230469 142.535156 C 212.066406 142.535156 212.066406 142.535156 212.230469 142.535156 L 212.066406 142.535156 C 211.902344 142.535156 211.738281 142.535156 211.738281 142.367188 C 211.40625 142.367188 211.074219 142.203125 210.746094 142.203125 C 209.589844 142.039062 208.597656 141.875 207.609375 141.875 C 207.113281 141.875 206.617188 141.875 205.957031 141.707031 L 205.789062 141.707031 C 202.324219 141.378906 199.515625 141.046875 196.871094 140.222656 C 195.714844 139.726562 195.386719 139.066406 195.054688 138.40625 C 195.054688 138.238281 194.890625 138.238281 194.890625 138.074219 L 192.742188 137.414062 C 193.734375 129.816406 193.402344 121.890625 191.585938 114.125 C 189.769531 106.363281 186.632812 99.097656 182.339844 92.492188 L 183.988281 91.003906 L 183.988281 90.671875 C 183.988281 89.847656 184.15625 89.023438 184.816406 88.195312 C 186.796875 86.378906 189.273438 84.894531 192.246094 83.074219 C 192.742188 82.746094 193.238281 82.582031 193.734375 82.25 C 194.726562 81.753906 195.550781 81.257812 196.542969 80.597656 C 196.707031 80.433594 197.039062 80.269531 197.367188 79.9375 C 197.53125 79.773438 197.699219 79.773438 197.699219 79.609375 C 200.011719 77.625 200.503906 74.324219 198.855469 72.175781 C 198.027344 71.019531 196.542969 70.359375 195.054688 70.359375 C 193.734375 70.359375 192.578125 70.855469 191.421875 71.679688 C 191.257812 71.84375 191.257812 71.84375 191.089844 72.011719 C 190.761719 72.175781 190.597656 72.503906 190.265625 72.671875 C 189.441406 73.496094 188.78125 74.15625 188.117188 74.984375 C 187.789062 75.3125 187.457031 75.808594 186.960938 76.140625 C 184.648438 78.617188 182.503906 80.597656 180.355469 82.085938 C 179.859375 82.414062 179.363281 82.582031 178.871094 82.582031 C 178.539062 82.582031 178.210938 82.582031 177.878906 82.414062 L 177.546875 82.414062 L 175.566406 83.738281 C 173.417969 81.425781 171.105469 79.441406 168.792969 77.460938 C 158.886719 69.699219 146.828125 64.910156 134.277344 63.753906 L 134.109375 61.605469 C 133.945312 61.441406 133.945312 61.441406 133.78125 61.273438 C 133.285156 60.78125 132.625 60.285156 132.460938 59.128906 C 132.292969 56.484375 132.625 53.511719 132.953125 50.210938 L 132.953125 50.042969 C 132.953125 49.546875 133.121094 48.886719 133.285156 48.390625 C 133.449219 47.402344 133.617188 46.410156 133.78125 45.253906 L 133.78125 43.769531 C 133.78125 40.792969 131.46875 38.316406 128.660156 38.316406 C 127.339844 38.316406 126.019531 38.976562 125.027344 39.96875 C 124.035156 40.960938 123.539062 42.28125 123.539062 43.769531 L 123.539062 45.089844 C 123.539062 46.246094 123.707031 47.234375 124.035156 48.226562 C 124.203125 48.722656 124.203125 49.21875 124.367188 49.878906 L 124.367188 50.042969 C 124.695312 53.347656 125.191406 56.320312 124.863281 58.960938 C 124.695312 60.117188 124.035156 60.613281 123.539062 61.109375 C 123.375 61.273438 123.375 61.273438 123.210938 61.441406 L 123.046875 63.585938 C 120.070312 63.917969 117.097656 64.246094 114.125 64.910156 C 101.410156 67.714844 90.179688 74.15625 81.425781 83.40625 L 79.773438 82.25 L 79.441406 82.25 C 79.113281 82.25 78.78125 82.414062 78.453125 82.414062 C 77.957031 82.414062 77.460938 82.25 76.964844 81.921875 C 74.816406 80.433594 72.671875 78.285156 70.359375 75.808594 C 70.027344 75.480469 69.699219 74.984375 69.203125 74.652344 C 68.542969 73.828125 67.882812 73.167969 67.054688 72.339844 C 66.890625 72.175781 66.558594 72.011719 66.230469 71.679688 C 66.066406 71.515625 65.898438 71.515625 65.898438 71.351562 C 64.910156 70.523438 63.585938 70.027344 62.265625 70.027344 C 60.78125 70.027344 59.292969 70.6875 58.46875 71.84375 C 56.816406 73.992188 57.3125 77.296875 59.625 79.277344 C 59.789062 79.277344 59.789062 79.441406 59.953125 79.441406 C 60.285156 79.609375 60.449219 79.9375 60.78125 80.101562 C 61.769531 80.765625 62.597656 81.257812 63.585938 81.753906 C 64.082031 81.921875 64.578125 82.25 65.074219 82.582031 C 68.046875 84.398438 70.523438 85.882812 72.503906 87.699219 C 73.332031 88.527344 73.332031 89.351562 73.332031 90.179688 L 73.332031 90.507812 L 74.984375 91.996094 C 74.652344 92.492188 74.324219 92.820312 74.15625 93.316406 C 65.898438 106.363281 62.761719 121.722656 64.910156 136.917969 L 62.761719 137.578125 C 62.761719 137.746094 62.597656 137.746094 62.597656 137.910156 C 62.265625 138.570312 61.769531 139.230469 60.78125 139.726562 C 58.300781 140.550781 55.328125 140.882812 51.859375 141.214844 L 51.695312 141.214844 C 51.199219 141.214844 50.539062 141.214844 50.042969 141.378906 C 49.054688 141.378906 48.0625 141.542969 46.90625 141.707031 C 46.574219 141.707031 46.246094 141.875 45.914062 141.875 C 45.75 141.875 45.585938 141.875 45.417969 142.039062 C 42.445312 142.699219 40.628906 145.507812 41.125 148.148438 C 41.621094 150.460938 43.769531 151.949219 46.410156 151.949219 C 46.90625 151.949219 47.234375 151.949219 47.730469 151.785156 C 47.898438 151.785156 48.0625 151.785156 48.0625 151.617188 C 48.390625 151.617188 48.722656 151.453125 49.054688 151.453125 C 50.210938 151.121094 51.035156 150.792969 52.027344 150.296875 C 52.519531 150.132812 53.015625 149.800781 53.511719 149.636719 L 53.675781 149.636719 C 56.816406 148.480469 59.625 147.488281 62.265625 147.160156 L 62.597656 147.160156 C 63.585938 147.160156 64.246094 147.652344 64.742188 147.984375 C 64.910156 147.984375 64.910156 148.148438 65.074219 148.148438 L 67.386719 147.820312 C 71.351562 160.042969 78.945312 170.941406 89.023438 178.871094 C 91.335938 180.6875 93.644531 182.171875 96.125 183.660156 L 95.132812 185.804688 C 95.132812 185.972656 95.296875 185.972656 95.296875 186.136719 C 95.628906 186.796875 95.957031 187.625 95.628906 188.78125 C 94.636719 191.257812 93.152344 193.734375 91.335938 196.542969 L 91.335938 196.707031 C 91.003906 197.203125 90.671875 197.53125 90.34375 198.027344 C 89.683594 198.855469 89.1875 199.679688 88.527344 200.671875 C 88.359375 200.835938 88.195312 201.167969 88.03125 201.496094 C 88.03125 201.660156 87.867188 201.828125 87.867188 201.828125 C 86.542969 204.636719 87.535156 207.773438 90.011719 208.929688 C 90.671875 209.257812 91.335938 209.425781 91.996094 209.425781 C 93.976562 209.425781 95.957031 208.101562 96.949219 206.285156 C 96.949219 206.121094 97.113281 205.957031 97.113281 205.957031 C 97.28125 205.625 97.445312 205.296875 97.609375 205.128906 C 98.105469 203.972656 98.269531 203.148438 98.601562 202.15625 C 98.765625 201.660156 98.929688 201.167969 99.097656 200.671875 C 100.253906 197.367188 101.078125 194.726562 102.566406 192.414062 C 103.226562 191.421875 104.050781 191.257812 104.710938 190.925781 C 104.878906 190.925781 104.878906 190.925781 105.042969 190.761719 L 106.199219 188.613281 C 113.464844 191.421875 121.394531 192.910156 129.320312 192.910156 C 134.109375 192.910156 139.066406 192.414062 143.691406 191.257812 C 146.664062 190.597656 149.472656 189.769531 152.277344 188.78125 L 153.269531 190.597656 C 153.433594 190.597656 153.433594 190.597656 153.601562 190.761719 C 154.425781 190.925781 155.085938 191.257812 155.746094 192.246094 C 157.070312 194.558594 158.058594 197.367188 159.214844 200.503906 L 159.214844 200.671875 C 159.378906 201.167969 159.546875 201.660156 159.710938 202.15625 C 160.042969 203.148438 160.207031 204.140625 160.703125 205.128906 C 160.867188 205.460938 161.03125 205.625 161.199219 205.957031 C 161.199219 206.121094 161.363281 206.285156 161.363281 206.285156 C 162.355469 208.269531 164.335938 209.425781 166.316406 209.425781 C 166.976562 209.425781 167.640625 209.257812 168.300781 208.929688 C 169.457031 208.269531 170.445312 207.277344 170.777344 205.957031 C 171.105469 204.636719 171.105469 203.148438 170.445312 201.828125 C 170.445312 201.660156 170.28125 201.660156 170.28125 201.496094 C 170.117188 201.167969 169.949219 200.835938 169.785156 200.671875 C 169.289062 199.679688 168.628906 198.855469 167.96875 198.027344 C 167.640625 197.53125 167.308594 197.203125 166.976562 196.707031 L 166.976562 196.542969 C 165.160156 193.734375 163.507812 191.257812 162.683594 188.78125 C 162.355469 187.625 162.683594 186.960938 162.847656 186.136719 C 162.847656 185.972656 163.015625 185.972656 163.015625 185.804688 L 162.1875 183.824219 C 170.941406 178.703125 178.375 171.4375 183.988281 162.519531 C 186.960938 157.894531 189.273438 152.773438 190.925781 147.652344 L 192.910156 147.984375 C 193.074219 147.984375 193.074219 147.820312 193.238281 147.820312 C 193.898438 147.488281 194.394531 146.992188 195.386719 146.992188 L 195.714844 146.992188 C 198.359375 147.324219 201.167969 148.316406 204.304688 149.472656 L 204.46875 149.472656 C 204.964844 149.636719 205.460938 149.964844 205.957031 150.132812 C 206.945312 150.628906 207.773438 150.957031 208.929688 151.289062 C 209.257812 151.289062 209.589844 151.453125 209.921875 151.453125 C 210.085938 151.453125 210.25 151.453125 210.414062 151.617188 C 210.910156 151.785156 211.242188 151.785156 211.738281 151.785156 C 214.214844 151.785156 216.359375 150.132812 217.023438 147.984375 C 217.023438 146.003906 215.207031 143.359375 212.230469 142.535156 Z M 135.761719 134.441406 L 128.496094 137.910156 L 121.226562 134.441406 L 119.410156 126.679688 L 124.367188 120.402344 L 132.460938 120.402344 L 137.414062 126.679688 Z M 178.871094 117.265625 C 180.191406 122.878906 180.519531 128.496094 180.027344 133.945312 L 154.757812 126.679688 C 152.445312 126.019531 151.121094 123.707031 151.617188 121.394531 C 151.785156 120.734375 152.113281 120.070312 152.609375 119.578125 L 172.59375 101.574219 C 175.402344 106.199219 177.546875 111.484375 178.871094 117.265625 Z M 164.664062 91.664062 L 143.03125 107.023438 C 141.214844 108.179688 138.734375 107.851562 137.25 106.035156 C 136.753906 105.539062 136.589844 104.878906 136.421875 104.214844 L 134.9375 77.296875 C 146.332031 78.617188 156.738281 83.738281 164.664062 91.664062 Z M 116.769531 78.121094 C 118.585938 77.789062 120.238281 77.460938 122.054688 77.128906 L 120.566406 103.554688 C 120.402344 105.867188 118.585938 107.851562 116.109375 107.851562 C 115.449219 107.851562 114.621094 107.683594 114.125 107.355469 L 92.160156 91.664062 C 98.929688 84.894531 107.355469 80.269531 116.769531 78.121094 Z M 84.230469 101.574219 L 103.886719 119.082031 C 105.703125 120.566406 105.867188 123.375 104.382812 125.191406 C 103.886719 125.851562 103.226562 126.347656 102.398438 126.511719 L 76.800781 133.945312 C 75.808594 122.714844 78.285156 111.320312 84.230469 101.574219 Z M 79.773438 146.332031 L 106.035156 141.875 C 108.179688 141.707031 110.164062 143.195312 110.65625 145.34375 C 110.824219 146.332031 110.824219 147.160156 110.492188 147.984375 L 100.417969 172.261719 C 91.167969 166.316406 83.738281 157.234375 79.773438 146.332031 Z M 140.058594 179.199219 C 136.257812 180.027344 132.460938 180.519531 128.496094 180.519531 C 122.714844 180.519531 117.097656 179.53125 111.8125 177.878906 L 124.863281 154.261719 C 126.183594 152.773438 128.332031 152.113281 130.148438 153.105469 C 130.972656 153.601562 131.632812 154.261719 132.128906 154.921875 L 144.847656 177.878906 C 143.359375 178.375 141.707031 178.703125 140.058594 179.199219 Z M 172.261719 156.242188 C 168.132812 162.847656 162.683594 168.132812 156.40625 172.261719 L 146.003906 147.324219 C 145.507812 145.34375 146.332031 143.195312 148.316406 142.203125 C 148.976562 141.875 149.800781 141.707031 150.628906 141.707031 L 177.054688 146.167969 C 176.0625 149.800781 174.410156 153.105469 172.261719 156.242188 Z M 172.261719 156.242188 "/>
</g>
</svg>
